# xmcd
#
# Track frame offsets:
#	150
#	10757
#	22655
#	35205
#	45102
#	57648
#	69778
#	82811
#	91703
#	107898
#
# Disc length: 1591 seconds
# Revision: 0
# Processed by: cddbd v1.5.2PL0 Copyright (c) Steve Scherf et al.
# Submitted via: dBpowerAMP V12.0
#
DISCID=6706350a
DTITLE=Various Artist - Country Giants Volume 2
DYEAR=1900
DGENRE=Country
TTITLE0=Spears, Billis Jo - I'm So Lionesome I Could Cry
TTITLE1=Parton, Dolly - Makin Believe
TTITLE2=Oakridge Boys - In the Shelter of His Arms
TTITLE3=Nelson, Willie - I Didn't Sleep a Wink
TTITLE4=Laine, Frankie - Moonlight Gambler
TTITLE5=Jennings, Waylon - Don't Think Twice Its Alright
TTITLE6=Rogers, Kenny - Ruby Don't Take Your Love to Town
TTITLE7=Ives, Burl - Little Billy Tear
TTITLE8=Anderson, Lyn - Devil Went Down to Georgia
TTITLE9=Cline, Patsy - I've Loved and Losed Again
EXTD=
EXTT0=
EXTT1=
EXTT2=
EXTT3=
EXTT4=
EXTT5=
EXTT6=
EXTT7=
EXTT8=
EXTT9=
PLAYORDER=
